<?xml version="1.0" standalone="no"?>
<!DOCTYPE svg PUBLIC "-//W3C//DTD SVG 20010904//EN"
 "http://www.w3.org/TR/2001/REC-SVG-20010904/DTD/svg10.dtd">
<svg version="1.0" xmlns="http://www.w3.org/2000/svg"
 width="64.000000pt" height="64.000000pt" viewBox="0 0 64.000000 64.000000"
 preserveAspectRatio="xMidYMid meet">

<g transform="translate(0.000000,64.000000) scale(0.100000,-0.100000)"
fill="#000000" stroke="none">
<path d="M82 557 c-39 -40 -42 -46 -42 -100 l0 -57 40 0 40 0 0 60 0 60 40 0
40 0 0 -60 0 -60 40 0 40 0 0 60 0 60 40 0 40 0 0 -60 0 -60 40 0 40 0 0 60 0
60 40 0 40 0 0 -60 0 -60 40 0 40 0 0 58 c0 55 -2 60 -43 100 l-43 42 -195 0
-195 0 -42 -43z"/>
<path d="M40 200 l0 -160 280 0 280 0 0 160 0 160 -40 0 -40 0 0 -120 0 -120
-40 0 -40 0 0 70 0 70 -40 0 -40 0 0 -70 0 -70 -120 0 -120 0 0 120 0 120 -40
0 -40 0 0 -160z"/>
<path d="M200 310 l0 -50 40 0 40 0 0 50 0 50 -40 0 -40 0 0 -50z"/>
</g>
</svg>
